TRON: Legacy (2011)(divx)(nl subs) RETAIL TBS 


*****Momenteel te zien in 21 bioscopen***** 


Verenigde Staten
Science-Fiction / Avontuur
127 minuten

geregisseerd door Joseph Kosinski
met Jeff Bridges, Garrett Hedlund en Olivia Wilde

Wanneer Sam Flynn (Garrett Hedlund) nog jong is, verdwijnt zijn vader Kevin (Jeff Bridges), een computerprogrammeur. Zo'n 20 jaar later krijgt Sam bezoek van Alan Bradley, een oud-collega van zijn vader. Alan beweert dat de vader van Sam nog leeft en vermoedt dat hij terug te vinden is in diens vroegere arcadehal. Sam hecht niet veel geloof aan dat gegeven, maar gaat toch op onderzoek uit. Wanneer hij een verborgen kamer vindt, wordt hij opgezogen in een virtual realitywereld. Samen met Kevin’s vertrouweling Quorra (Olivia Wilde) komen vader en zoon in een gevecht terecht van leven en dood. Ze moeten zien te ontsnappen uit een visueel prachtige cyberwereld die niet alleen heel geavanceerd blijkt te zijn, maar ook heel erg gevaarlijk.


English

Storyline
Sam Flynn, the tech-savvy 27-year-old son of Kevin Flynn, looks into his father's disappearance and finds himself pulled into the same world of fierce programs and gladiatorial games where his father has been living for 20 years. Along with Kevin's loyal confidant, father and son embark on a life-and-death journey across a visually-stunning cyber universe that has become far more advanced and exceedingly dangerous.
 

Info

titel............................: Tron.legacy.readnfo.dvdrip.xvid.ac3-rx
subs.............................: Dutch (lossles)
jaar uitgave.....................: 2010
Bron.............................: RETAIL
Format                           : AVI
Format/Info                      : Audio Video Interleave
File size                        : 1.37 GiB
Duration                         : 2h 5mn
Overall bit rate                 : 1 569 Kbps
Writing application              : VirtualDubMod 1.5.10.2 (build 2540/release)
Writing library                  : VirtualDubMod build 2540/release

Video
ID                               : 0
Format                           : MPEG-4 Visual
Format profile                   : Advanced Simple@L5
Format settings, BVOP            : Yes
Format settings, QPel            : No
Format settings, GMC             : No warppoints
Format settings, Matrix          : Default (MPEG)
Codec ID                         : XVID
Codec ID/Hint                    : XviD
Duration                         : 2h 5mn
Bit rate                         : 1 176 Kbps
Width                            : 720 pixels
Height                           : 400 pixels
Display aspect ratio             : 16:9
Frame rate                       : 23.976 fps
Color space                      : YUV
Chroma subsampling               : 4:2:0
Bit depth                        : 8 bits
Scan type                        : Progressive
Bits/(Pixel*Frame)               : 0.170
Stream size                      : 1.03 GiB (75%)
Writing library                  : XviD 62

Audio
ID                               : 1
Format                           : AC-3
Format/Info                      : Audio Coding 3
Mode extension                   : CM (complete main)
Codec ID                         : 2000
Duration                         : 2h 5mn
Bit rate mode                    : Constant
Bit rate                         : 384 Kbps
Channel(s)                       : 6 channels
Channel positions                : Front: L C R, Side: L R, LFE
Sampling rate                    : 48.0 KHz
Bit depth                        : 16 bits
Stream size                      : 344 MiB (24%)
Alignment                        : Split accross interleaves
Interleave, duration             : 42 ms (1.00 video frame)
Interleave, preload duration     : 500 ms
 
http://www.moviemeter.nl/film/59176 
http://www.imdb.com/title/tt1104001

TBS